# Blender 5.1.0
# www.blender.org
mtllib med_bench_tavern_a.mtl
o med_bench_tavern_a
v -0.700000 0.370000 0.140000
v 0.000000 0.370000 0.140000
v 0.700000 0.370000 0.140000
v -0.700000 0.370000 -0.140000
v 0.000000 0.370000 -0.140000
v 0.700000 0.370000 -0.140000
v -0.700000 0.440000 0.140000
v 0.000000 0.440000 0.140000
v 0.700000 0.440000 0.140000
v -0.700000 0.440000 -0.140000
v 0.000000 0.440000 -0.140000
v 0.700000 0.440000 -0.140000
v -0.679000 0.000000 0.119000
v -0.609000 0.000000 0.119000
v -0.609000 0.000000 0.049000
v -0.679000 0.000000 0.049000
v -0.671300 0.370000 0.111300
v -0.616700 0.370000 0.111300
v -0.616700 0.370000 0.056700
v -0.671300 0.370000 0.056700
v 0.609000 0.000000 0.119000
v 0.679000 0.000000 0.119000
v 0.679000 0.000000 0.049000
v 0.609000 0.000000 0.049000
v 0.616700 0.370000 0.111300
v 0.671300 0.370000 0.111300
v 0.671300 0.370000 0.056700
v 0.616700 0.370000 0.056700
v -0.679000 0.000000 -0.049000
v -0.609000 0.000000 -0.049000
v -0.609000 0.000000 -0.119000
v -0.679000 0.000000 -0.119000
v -0.671300 0.370000 -0.056700
v -0.616700 0.370000 -0.056700
v -0.616700 0.370000 -0.111300
v -0.671300 0.370000 -0.111300
v 0.609000 0.000000 -0.049000
v 0.679000 0.000000 -0.049000
v 0.679000 0.000000 -0.119000
v 0.609000 0.000000 -0.119000
v 0.616700 0.370000 -0.056700
v 0.671300 0.370000 -0.056700
v 0.671300 0.370000 -0.111300
v 0.616700 0.370000 -0.111300
v -0.630000 0.120000 0.025000
v 0.630000 0.120000 0.025000
v 0.630000 0.120000 -0.025000
v -0.630000 0.120000 -0.025000
v -0.630000 0.170000 0.025000
v 0.630000 0.170000 0.025000
v 0.630000 0.170000 -0.025000
v -0.630000 0.170000 -0.025000
v -0.025000 0.120000 0.105000
v 0.025000 0.120000 0.105000
v 0.025000 0.120000 -0.105000
v -0.025000 0.120000 -0.105000
v -0.025000 0.170000 0.105000
v 0.025000 0.170000 0.105000
v 0.025000 0.170000 -0.105000
v -0.025000 0.170000 -0.105000
vn -0.0000 1.0000 -0.0000
vn -0.0000 -1.0000 -0.0000
vn -0.0000 -0.0000 1.0000
vn -0.0000 -0.0000 -1.0000
vn -1.0000 -0.0000 -0.0000
vn 1.0000 -0.0000 -0.0000
vn -0.0000 0.0208 0.9998
vn 0.9998 0.0208 -0.0000
vn -0.0000 0.0208 -0.9998
vn -0.9998 0.0208 -0.0000
s 0
usemtl wood_rough
f 7//1 8//1 11//1 10//1
f 8//1 9//1 12//1 11//1
f 1//2 4//2 5//2 2//2
f 2//2 5//2 6//2 3//2
f 1//3 2//3 8//3 7//3
f 4//4 10//4 11//4 5//4
f 2//3 3//3 9//3 8//3
f 5//4 11//4 12//4 6//4
f 1//5 7//5 10//5 4//5
f 3//6 6//6 12//6 9//6
f 13//1 14//1 15//1 16//1
f 20//2 19//2 18//2 17//2
f 13//7 14//7 18//7 17//7
f 14//8 15//8 19//8 18//8
f 15//9 16//9 20//9 19//9
f 16//10 13//10 17//10 20//10
f 21//1 22//1 23//1 24//1
f 28//2 27//2 26//2 25//2
f 21//7 22//7 26//7 25//7
f 22//8 23//8 27//8 26//8
f 23//9 24//9 28//9 27//9
f 24//10 21//10 25//10 28//10
f 29//1 30//1 31//1 32//1
f 36//2 35//2 34//2 33//2
f 29//7 30//7 34//7 33//7
f 30//8 31//8 35//8 34//8
f 31//9 32//9 36//9 35//9
f 32//10 29//10 33//10 36//10
f 37//1 38//1 39//1 40//1
f 44//2 43//2 42//2 41//2
f 37//7 38//7 42//7 41//7
f 38//8 39//8 43//8 42//8
f 39//9 40//9 44//9 43//9
f 40//10 37//10 41//10 44//10
f 45//1 46//1 47//1 48//1
f 49//2 52//2 51//2 50//2
f 45//4 49//4 50//4 46//4
f 46//5 50//5 51//5 47//5
f 47//3 51//3 52//3 48//3
f 48//6 52//6 49//6 45//6
f 53//1 54//1 55//1 56//1
f 57//2 60//2 59//2 58//2
f 53//4 57//4 58//4 54//4
f 54//5 58//5 59//5 55//5
f 55//3 59//3 60//3 56//3
f 56//6 60//6 57//6 53//6
